<?xml version="1.0" encoding="utf-8"?>
<!-- Generator: Adobe Illustrator 25.4.2, SVG Export Plug-In . SVG Version: 6.00 Build 0)  -->
<svg version="1.1" id="f8a7cb08-6dcb-4da3-b2bc-03d5712a07c7"
	 xmlns="http://www.w3.org/2000/svg" xmlns:xlink="http://www.w3.org/1999/xlink" x="0px" y="0px" viewBox="0 0 82.2 62.3"
	 style="enable-background:new 0 0 82.2 62.3;" xml:space="preserve">
<style type="text/css">
	.st0{fill:#1C4483;}
</style>
<g id="ab9f5788-a7a1-41ee-9f0e-5bf0b3a23db7">
	<g id="e3ee1ce9-f171-455d-baef-2139317fd5d2">
		<path class="st0" d="M69.4,26.9L64.1,29v20.4c3.1-2.2,5.3-5,5.3-9.1V26.9z"/>
		<path class="st0" d="M81.8,16.2l-39.5-16c-0.8-0.3-1.7-0.3-2.5,0l-39.3,16C0,16.4-0.2,16.9,0,17.4l0,0c0.1,0.2,0.2,0.3,0.4,0.4
			l39.3,15.8c0.8,0.4,1.8,0.4,2.6,0l15.8-6.3l-16-7.8H41c-2.4,0-4.5-1.2-4.5-2.7s2.1-2.6,4.5-2.6s4.6,1.2,4.6,2.6l-0.3,0.9l16.5,8
			l20-8c0.4-0.3,0.5-0.8,0.3-1.2L81.8,16.2z"/>
		<path class="st0" d="M57.4,56.7v-25l-14.5,5.8c-1.1,0.6-2.4,0.6-3.5,0.1L12.7,26.9v13.4c0,6.9,6.1,10,12.5,12.5s19.8,2.9,28.3,1
			v4.7c0.1,2.2,1.9,3.8,4,3.8c1.4,0,2.7-0.9,3.4-2.2C59,60.2,57.5,58.7,57.4,56.7C57.4,56.8,57.4,56.8,57.4,56.7L57.4,56.7z"/>
	</g>
</g>
</svg>
