<svg version="1.1" id="Layer_1" class="icon" xmlns="http://www.w3.org/2000/svg" xmlns:xlink="http://www.w3.org/1999/xlink" x="0px" y="0px"
	 viewBox="0 0 201.4 187.4" style="enable-background:new 0 0 201.4 187.4;" xml:space="preserve">
		<path class="st0" d="M194.2,101.8l-31-7.1c-3.7-0.9-5.3-2.9-5.3-6.6c0-6,0.1-12-0.1-17.9c-0.4-8.9-6.1-14.4-14.9-14.7
			c-3-0.1-6,0-9,0c-5.9-0.2-6.8-1-6.9-7c-0.1-9.1,0-18.3-0.1-27.4c0-3.2-0.3-6.4-2.5-8.9C120.1,7.5,116,2.3,109.7,0h-1
			c-3.6,1.4-6.7,3.7-9.3,6.5c-3.5,4-4,6.7,0.1,9.7c6.3,4.6,7.5,10.6,6.8,17.5c-0.3,2.4,1.2,6.7-2.2,6.6s-2.1-4.3-2-6.7
			c0.2-5.1-1.8-8.5-6.1-11.1C79.1,12.1,60.2,9,40.8,7.9c-6.1-0.4-9.8,3.8-10.1,9.8c-0.2,2.7-0.2,5.4-0.2,8c0,29.2,0.1,58.5,0,87.7
			c0.1,2,0.1,3.9-0.2,5.9c-0.5,2.8-2.5,3.8-5.1,3.8s-4.1-1.2-4.6-3.7c-0.3-2-0.4-3.9-0.3-5.9V24.8c0-2.8-0.1-5.7-0.2-8.5
			s-1.8-5-4.1-6.5S3.4,8.4,0,11v10.9c4.9,2.9,5.7,7.4,5.7,12.8c-0.2,26-0.2,52.1,0,78.2c0,5.3-0.8,9.8-5.7,12.7v11
			c8.9-0.7,16.7,5.7,18.3,15c1.6,9.4-4.3,18.5-13.5,20.9c-1.5,0.4-3.2,0.6-4.8,0.9v7c0,7,0,7,7,7c4.9-1.6,10.6-0.9,14.7-5
			s9.2-8.8,11.3-14.9c1.5-4.3,4.3-5.7,8.7-5.7h72.7c4.4,0,6.8,1.6,8.7,5.6c5.6,11.9,14.3,19.8,28.4,19.5v-0.4h8.1
			c0,0.1,0,0.2-0.1,0.3c9.4,0.1,17.5-2.7,23.6-10.4c2.4-3,4.3-6.3,5.6-9.9c1-3,2.7-5,6.1-4.8s5.3-1.5,6.6-4.3v-49.7
			C200.2,104.2,197.8,102.6,194.2,101.8z M116.7,93.7c-2.6,0.1-4-0.9-4-3.7V72.7c-0.1-2.7,1.1-4,3.8-3.9h22.9
			c3.1-0.1,4.7,1.1,4.6,4.3v16.2c0,3-1.2,4.5-4.5,4.5C131.9,93.6,124.3,93.6,116.7,93.7z M158.5,173.3c-10.2-0.1-18.4-8.2-18.7-18.3
			c-0.2-10,8.4-18.6,18.7-18.8c10.1-0.1,18.3,7.9,18.4,18c0,0.2,0,0.5,0,0.7C176.8,165,168.6,173.2,158.5,173.3z"/>
</svg>
