<?xml version="1.0" encoding="utf-8"?>
<!-- Generator: Adobe Illustrator 25.4.1, SVG Export Plug-In . SVG Version: 6.00 Build 0)  -->
<svg version="1.1" id="Layer_1" xmlns="http://www.w3.org/2000/svg" xmlns:xlink="http://www.w3.org/1999/xlink" x="0px" y="0px"
	 viewBox="0 0 1055.7 843.5" style="enable-background:new 0 0 1055.7 843.5;" xml:space="preserve">
<style type="text/css">
	.st0{fill:#19306F;}
</style>
<g id="e610142c-8044-46b3-8f6f-831b538ad6ab">
	<g id="a2ead1be-5d4e-4b54-bdbd-502bbd8b2d3e">
		<path class="st0" d="M748.9,232.5C666.9,38.8,443.3-51.8,249.6,30.3C158.5,68.9,86,141.4,47.4,232.5
			C0.6,343.7,9.1,470.6,70.5,574.5c0.4,0.8-70.2,180.8-70.2,180.8c-0.6,1.5-0.3,3.1,0.7,4.3c0.8,0.8,1.8,1.2,2.9,1.2l1.3-0.2
			l189.4-58.2c177.8,112.4,413,59.3,525.3-118.5C786.5,478.6,797.3,347.3,748.9,232.5z M389.1,625.1c-25.9,0-46.9-21-46.9-46.9
			c0-25.9,21-46.9,46.9-46.9c25.9,0,46.9,21,46.9,46.9c0,0,0,0,0,0C436,604.1,415,625.1,389.1,625.1z M484.7,380.5
			c-33.9,28.6-58.4,48.5-58.4,112.2h-71.7c0-77.7,16.6-104.2,51.7-134.7c28.6-24.6,53.8-40.5,53.8-85c0-53.8-41.1-73.7-65-73.7
			c-50.3,0-76.2,33.3-79.9,85.4h-75.8c4.9-90,66-148.5,159-148.5c81,0,144.7,48.5,144.7,134.1C543.1,332.7,513.9,356,484.7,380.5
			L484.7,380.5z"/>
		<path class="st0" d="M1055.4,838c0,0-63.8-162.7-63.4-163.3c96.8-163.5,42.8-374.5-120.7-471.3c-31.4-18.6-65.5-32.1-101.2-39.9
			c9.3,16,17.6,32.5,24.9,49.5c92.4,219.2-10.2,471.7-229.2,564.5c-15.4,6.5-31.2,12.1-47.3,16.8c111.5,67,251.3,65.5,361.3-4.1
			l171.1,52.6l1.2,0.2c1,0,1.9-0.4,2.6-1.1C1055.7,840.8,1055.9,839.3,1055.4,838z"/>
	</g>
</g>
</svg>
