<?xml version="1.0" encoding="utf-8"?>
<!-- Generator: Adobe Illustrator 25.4.2, SVG Export Plug-In . SVG Version: 6.00 Build 0)  -->
<svg version="1.1" id="Layer_1" xmlns="http://www.w3.org/2000/svg" xmlns:xlink="http://www.w3.org/1999/xlink" x="0px" y="0px"
	 viewBox="0 0 56 56.5" style="enable-background:new 0 0 56 56.5;" xml:space="preserve">
<style type="text/css">
	.st0{fill:#1C4483;}
</style>
<g id="b21538a1-4499-49da-b690-39ec5c4cf888">
	<g id="ed321e8e-5d92-46ca-98d0-103a56a17902">
		<path class="st0" d="M56,46.1l-3.7-3.7c0,0-0.9-5.5-2-6.6s-6.8-2.2-6.8-2.2s-0.5-5.1-1.9-6.5s-5-2.5-6.9-3.1l2.9-3
			c2.6-2.6,2.6-6.9,0-9.5L28.1,2c-2.5-2.6-6.7-2.7-9.3-0.2c-0.1,0.1-0.1,0.1-0.2,0.2L2,18.6c-2.6,2.5-2.7,6.7-0.2,9.3
			C1.9,28,1.9,28,2,28.1l9.5,9.5c2.6,2.6,6.9,2.6,9.5,0l2.8-2.8l21.7,21.7l9.3-0.5c0.6-0.1,1.1-0.6,1.2-1.2V46.1z M24.1,14.3
			l-9.8,9.8c-1.4,1.5-3.8,1.6-5.3,0.2c-1.4-1.5-1.3-3.8,0.2-5.2c0,0,0.1,0,0.1-0.1L19,9.3c1.3-1.5,3.7-1.7,5.2-0.4
			c0,0,0.1,0,0.1,0.1C25.7,10.5,25.6,12.9,24.1,14.3z M46,52.9L31.1,38.1l2.1-2.1l16.7,16.7L46,52.9z"/>
	</g>
</g>
</svg>
