<?xml version="1.0" encoding="utf-8"?>
<!-- Generator: Adobe Illustrator 25.4.2, SVG Export Plug-In . SVG Version: 6.00 Build 0)  -->
<svg version="1.1" id="fda0af45-5abe-467d-b6bc-bf4c538c5090"
	 xmlns="http://www.w3.org/2000/svg" xmlns:xlink="http://www.w3.org/1999/xlink" x="0px" y="0px" viewBox="0 0 44.3 37"
	 style="enable-background:new 0 0 44.3 37;" xml:space="preserve">
<style type="text/css">
	.st0{fill:#1C4483;}
</style>
<g id="b08c94cd-b2ac-469b-aebe-5dca968b73f5">
	<g id="bca1b89c-29d5-465b-81e6-5d782e5843f8">
		<path class="st0" d="M44.3,6.5V3C36.6,8.6,28.8,5.4,21,2.6h-0.5C13.6,0.1,6.8-1.8,0,3v17.2c6.9-4.9,13.9-2.9,20.8-0.5
			s15.7,6.1,23.5,0.5v-3.4c-7.7,5.5-15.5,2.3-23.3-0.4v-3.5c7.8,2.8,15.6,6,23.3,0.4V9.9c-7.7,5.5-15.5,2.3-23.3-0.4V6.1
			C28.8,8.8,36.6,12,44.3,6.5z M14.3,6.2l0.3-0.6h0.1L15,6.3l0.2,0.2l0.7,0.3l0,0l-0.5,0.4c-0.1,0.1-0.1,0.1-0.1,0.2
			s0.1,0.5,0.2,0.7h-0.1l-0.6-0.5h-0.2L14,7.8h-0.1c0-0.2,0.1-0.4,0.1-0.7h-0.1l-0.5-0.6h0.9L14.3,6.2z M13.4,10.1h-0.1l-0.6-0.5
			h-0.2l-0.6,0.2h-0.1c0-0.3,0.1-0.5,0.1-0.7l0,0l-0.5-0.5c-0.1-0.1-0.1-0.1,0-0.1h0.8l0.3-0.6h0.1l0.3,0.7h0.2l0.7,0.3l0,0
			l-0.5,0.4c0,0.1-0.1,0.1,0,0.2C13.3,9.7,13.3,9.9,13.4,10.1z M11.4,3.4h0.8l0.3-0.6h0.1l0.3,0.7h0.2l0.7,0.3l0,0l-0.5,0.4
			c0,0.1-0.1,0.1,0,0.2c0,0.2,0,0.5,0.1,0.7c0,0.1,0,0.1-0.1,0.1l0,0l-0.6-0.5h-0.2l-0.6,0.2h-0.1c0-0.3,0.1-0.5,0.1-0.7V4L11.4,3.4
			C11.3,3.4,11.3,3.4,11.4,3.4z M10.1,5.6L10.5,5l0,0l0.4,0.6c0,0.1,0,0.1,0.1,0.1l0.7,0.2c0.1,0,0.1,0.1,0,0.1
			c-0.1,0.2-0.3,0.3-0.5,0.4v0.2c0,0.2,0,0.5,0.1,0.7c0,0.1,0,0.1-0.1,0.1L10.6,7h-0.2L9.8,7.3H9.7c0.1-0.2,0.1-0.5,0.1-0.7l0,0
			L9.3,6.1C9.2,6,9.2,6,9.3,6h0.9C10.3,5.7,10.2,5.6,10.1,5.6z M9.2,9.7c0,0.1,0,0.1-0.1,0.1L8.5,9.5H8.3L7.7,9.9H7.6
			c0.1-0.2,0.1-0.5,0.1-0.7c0.1-0.1,0-0.1,0-0.2L7.2,8.6c-0.1,0,0-0.1,0-0.1l0.7-0.2h0.2l0.3-0.6h0.1l0.3,0.6h0.8c0.1,0,0.1,0,0,0.1
			L9.1,8.9l0,0C9.1,9.3,9.2,9.5,9.2,9.7z M7.2,3.4l0.7-0.2h0.2l0.3-0.6c0-0.1,0-0.1,0.1,0l0.3,0.6h0.8c0.1,0,0.1,0,0,0.1L9.1,3.8
			l0,0c0,0.3,0.1,0.5,0.1,0.7H9.1L8.5,4.2H8.3L7.7,4.6H7.6c0.1-0.2,0.1-0.5,0.1-0.7c0.1-0.1,0-0.1,0-0.2L7.2,3.3
			C7.1,3.5,7.2,3.4,7.2,3.4z M6,5.9l0.3-0.7h0.1l0.3,0.6h0.9L7.1,6.3v0.2c0,0.2,0.1,0.5,0.1,0.7H7L6.4,7H6.2L5.6,7.5H5.5
			C5.6,7.2,5.6,7,5.7,6.7H5.6L5.1,6.3l0,0l0.7-0.2L6,5.9z M3,4.6l0.7-0.4L3.9,4l0.3-0.7h0.1l0.3,0.6h0.9C5.3,4.1,5.1,4.3,5,4.6H4.9
			C5,4.8,5,5.1,5,5.3l0,0L4.3,5.1H4.2L3.5,5.7l0,0c0-0.2,0-0.5,0.1-0.7l0,0L3,4.6L3,4.6z M3,9.6l0.7-0.4L3.9,9l0.3-0.7
			c0-0.1,0-0.1,0.1-0.1l0,0l0.3,0.6h0.9C5.3,9,5.1,9.2,5,9.5H4.9C5,9.7,5,10,5,10.2l0,0L4.3,10H4.2l-0.7,0.6l0,0
			c0-0.2,0-0.5,0.1-0.7l0,0L3,9.6L3,9.6z M5.5,13.8C5.3,14,5.1,14.2,5,14.5H4.9C5,14.7,5,15,5,15.2l0,0L4.3,15H4.2l-0.7,0.6l0,0
			c0-0.2,0-0.5,0.1-0.7H3.5L3,14.7l0,0l0.7-0.4l0.2-0.2l0.3-0.7h0.1L4.6,14h0.9V13.8z M7,12.4l-0.6-0.2H6.2l-0.6,0.5H5.5
			c0.1-0.3,0.1-0.5,0.2-0.8H5.6l-0.5-0.4l0,0l0.7-0.2L6,11.1l0.3-0.7h0.1L6.7,11h0.9l-0.5,0.5v0.2c0,0.2,0.1,0.4,0.1,0.7H7z
			 M9.6,13.4l-0.5,0.5l0,0c0,0.3,0.1,0.5,0.1,0.7s0,0.1-0.1,0.1l-0.6-0.3H8.3l-0.6,0.4H7.6c0.1-0.2,0.1-0.5,0.1-0.7
			c0.1-0.1,0-0.1,0-0.2l-0.5-0.4c-0.1,0,0-0.1,0-0.1l0.7-0.2h0.2l0.3-0.6h0.1l0.3,0.6h0.8C9.7,13.3,9.7,13.3,9.6,13.4z M11.2,12.4
			L10.6,12h-0.2l-0.6,0.3c-0.1,0-0.1,0-0.1-0.1c0.1-0.2,0.1-0.5,0.1-0.7l0,0L9.3,11c-0.1-0.1-0.1-0.1,0-0.1h0.8l0.4-0.6l0,0l0.4,0.6
			v0.2h0.7c0.1,0,0.1,0.1,0,0.1c-0.1,0.2-0.3,0.3-0.5,0.4v0.2C11.1,12,11.1,12.3,11.2,12.4L11.2,12.4z M13.8,13.9l-0.5,0.3
			c0,0.1-0.1,0.1,0,0.2c0,0.2,0,0.5,0.1,0.7h-0.1l-0.6-0.5h-0.2l-0.6,0.2h-0.1c0-0.2,0.1-0.5,0.1-0.7l0,0l-0.5-0.5
			c-0.1-0.1-0.1-0.1,0-0.1h0.8l0.3-0.6h0.1l0.3,0.7h0.2L13.8,13.9C13.8,13.9,13.9,13.8,13.8,13.9z M15.4,13.1l-0.6-0.5h-0.2L14,12.8
			c-0.1,0-0.1,0-0.1-0.1s0.1-0.4,0.1-0.6s0-0.2-0.1-0.2l-0.5-0.6c0-0.1,0-0.1,0.1-0.1h0.8l0.3-0.6h0.1l0.3,0.7l0.2,0.2l0.7,0.3l0,0
			l-0.5,0.4v0.2c0.1,0.2,0.1,0.5,0.2,0.7L15.4,13.1z M18,15l-0.5,0.3c-0.1,0-0.1,0.1-0.1,0.2c0.1,0.2,0.1,0.5,0.1,0.7
			c0.1,0,0,0.1,0,0l-0.7-0.5h-0.1L16,15.9l0,0c0-0.2,0-0.4,0.1-0.6c0-0.1,0-0.2-0.1-0.2l-0.5-0.7h0.9l0.3-0.5h0.1l0.3,0.7l0.2,0.2
			L18,15L18,15z M18,10l-0.5,0.3h-0.1c0.1,0.3,0.1,0.5,0.1,0.8c0.1,0,0,0.1,0,0l-0.7-0.5h-0.1L16,10.8l0,0c0-0.2,0-0.4,0.1-0.6
			c0-0.1,0-0.2-0.1-0.2l-0.5-0.7h0.9l0.3-0.6h0.1l0.3,0.7l0.2,0.2L18,9.9V10z M18,5l-0.5,0.3c-0.1,0-0.1,0-0.1,0.1l0,0
			c0.1,0.3,0.1,0.5,0.1,0.8l0,0l-0.7-0.5h-0.1L16,5.9l0,0c0-0.2,0-0.4,0.1-0.6c0-0.1,0-0.2-0.1-0.2l-0.5-0.7h0.9l0.3-0.6
			c0.1,0,0.1,0,0.1,0.1l0,0l0.3,0.7h0.2L18,5z M0,23.7v3.4c14.8-10.5,29.6,10.5,44.3,0v-3.4C29.6,34.2,14.8,13.1,0,23.7z M0,30.5V34
			c14.8-10.6,29.6,10.5,44.3,0v-3.5C29.6,41,14.8,20,0,30.5z"/>
	</g>
</g>
</svg>
