<?xml version="1.0" encoding="utf-8"?>
<!-- Generator: Adobe Illustrator 25.4.2, SVG Export Plug-In . SVG Version: 6.00 Build 0)  -->
<svg version="1.1" id="Layer_1" xmlns="http://www.w3.org/2000/svg" xmlns:xlink="http://www.w3.org/1999/xlink" x="0px" y="0px"
	 viewBox="0 0 51.9 60.7" style="enable-background:new 0 0 51.9 60.7;" xml:space="preserve">
<style type="text/css">
	.st0{fill:#1C4483;}
</style>
<g id="aec54475-40cf-4fe2-a6b7-ef97b8c7205f">
	<g id="bada5c0c-bcb3-4951-bc20-22edcf7c2e88">
		<path class="st0" d="M0,2.1v42c0,1.2,0.9,2.1,2.1,2.1h0.7v-7.6c0-1.8,1.4-3.2,3.2-3.2h0.9V11.6c0-0.8-0.2-2.8-1.1-2.9l0.5-3.5
			c3.4,0.5,4.2,4.2,4.1,6.4v3h3.3v-4.3c8.1-1.4,16.5-1.4,24.6,0.1v4.2h3.3v-3c-0.1-2.2,0.7-5.9,4.1-6.4l0.5,3.5
			c-0.9,0.1-1.1,2.1-1.1,2.8v23.9h0.8c1.8,0,3.2,1.4,3.2,3.2l0,0v7.6h0.8c1.1-0.1,2-1,2-2.1v-42C52,1,51.1,0.1,50,0h-0.1H2.1
			C0.9,0,0,0.9,0,2.1L0,2.1z"/>
		<path class="st0" d="M42.2,60.7h5.4c0.8,0,1.5-0.7,1.5-1.5v-9h-9.6V31.6c0-0.8-0.6-1.4-1.4-1.4l0,0H13.8c-0.8,0-1.4,0.6-1.4,1.4
			v18.6H2.8v9c0,0.8,0.7,1.5,1.5,1.5l0,0h5.4c0.8,0,1.5-0.7,1.5-1.5v-1.9h29.6v1.9C40.8,60,41.4,60.6,42.2,60.7z M34.9,47H17v-2.5
			h17.9V47z M34.9,41.6H17v-2.5h17.9V41.6z M34.9,36.3H17v-2.5h17.9V36.3z"/>
		<rect x="13.9" y="19.3" class="st0" width="24.1" height="7.1"/>
		<path class="st0" d="M5.9,39.9h3.9c0.4,0,0.7,0.3,0.7,0.7V44c0,0.4-0.3,0.7-0.7,0.7H5.9c-0.4,0-0.7-0.3-0.7-0.7v-3.4
			C5.2,40.2,5.5,39.9,5.9,39.9z"/>
		<path class="st0" d="M42.1,39.9H46c0.4,0,0.7,0.3,0.7,0.7V44c0,0.4-0.3,0.7-0.7,0.7h-3.9c-0.4,0-0.7-0.3-0.7-0.7v-3.4
			C41.4,40.2,41.7,39.9,42.1,39.9z"/>
	</g>
</g>
</svg>
