<svg xmlns="http://www.w3.org/2000/svg" width="496" height="496" viewBox="0 0 496 496"><g id="b12d366f-dbea-4a4b-ae2b-95c3692d7a0e" data-name="Layer 2"><g id="b80fe194-7c15-4dbf-aeaa-d60aafceba3b" data-name="Layer 1"><path d="M362.7,125.3A166.7,166.7,0,0,0,247.8,80c-77.4.1-144.3,53.2-162.7,126.9A12.2,12.2,0,0,1,73.4,216H16.1A12,12,0,0,1,4.3,201.8C25.9,86.9,126.8,0,248,0A247,247,0,0,1,419.3,68.7L455,33c15.1-15.1,41-4.4,41,16.9V184a23.9,23.9,0,0,1-24,24H337.9c-21.3,0-32-25.9-16.9-41ZM24,288H158.1c21.3,0,32,25.9,16.9,41l-41.7,41.7A166.7,166.7,0,0,0,248.2,416c77.4-.1,144.3-53.1,162.7-126.8a12.2,12.2,0,0,1,11.7-9.2h57.3a12,12,0,0,1,11.8,14.2C470.1,409.1,369.2,496,248,496A247,247,0,0,1,76.7,427.3L41,463c-15.1,15.1-41,4.4-41-16.9V312A23.9,23.9,0,0,1,24,288Z" fill="#1c4483"/></g></g></svg>